<mxfile host="app.diagrams.net" modified="2023-02-01T00:17:05.393Z" agent="5.0 (Windows NT 10.0; WOW64) AppleWebKit/537.36 (KHTML, like Gecko) Chrome/109.0.0.0 Safari/537.36" etag="ttj0d5D2bZyn8ix-yQje" version="20.8.14" type="github">
  <diagram name="Page-1" id="n2kq6l5O6JNOPDXfz5KM">
    <mxGraphModel dx="472" dy="742" grid="1" gridSize="10" guides="1" tooltips="1" connect="1" arrows="1" fold="1" page="1" pageScale="1" pageWidth="827" pageHeight="1169" math="0" shadow="0">
      <root>
        <mxCell id="0" />
        <mxCell id="1" parent="0" />
        <mxCell id="iRRC0EFSabeB_F9NU1vU-1" value="" style="whiteSpace=wrap;html=1;aspect=fixed;" vertex="1" parent="1">
          <mxGeometry x="30" y="70" width="430" height="430" as="geometry" />
        </mxCell>
        <mxCell id="iRRC0EFSabeB_F9NU1vU-2" value="Title" style="rounded=0;whiteSpace=wrap;html=1;" vertex="1" parent="1">
          <mxGeometry x="110" y="150" width="290" height="40" as="geometry" />
        </mxCell>
        <mxCell id="iRRC0EFSabeB_F9NU1vU-3" value="Aurthor" style="rounded=0;whiteSpace=wrap;html=1;" vertex="1" parent="1">
          <mxGeometry x="110" y="220" width="290" height="50" as="geometry" />
        </mxCell>
        <mxCell id="iRRC0EFSabeB_F9NU1vU-4" value="Genre" style="rounded=0;whiteSpace=wrap;html=1;" vertex="1" parent="1">
          <mxGeometry x="110" y="290" width="290" height="50" as="geometry" />
        </mxCell>
        <mxCell id="iRRC0EFSabeB_F9NU1vU-5" value="No. of pages" style="rounded=0;whiteSpace=wrap;html=1;" vertex="1" parent="1">
          <mxGeometry x="110" y="370" width="290" height="40" as="geometry" />
        </mxCell>
        <mxCell id="iRRC0EFSabeB_F9NU1vU-6" value="Home Screen" style="text;html=1;strokeColor=none;fillColor=none;align=center;verticalAlign=middle;whiteSpace=wrap;rounded=0;" vertex="1" parent="1">
          <mxGeometry x="210" y="90" width="60" height="30" as="geometry" />
        </mxCell>
      </root>
    </mxGraphModel>
  </diagram>
</mxfile>
